<?xml version="1.0" encoding="UTF-8"?>
<svg xmlns="http://www.w3.org/2000/svg" xmlns:xlink="http://www.w3.org/1999/xlink" width="124px" height="36px" viewBox="0 0 122 36" version="1.1">
<g id="surface1">
<path style=" stroke:none;fill-rule:nonzero;fill:rgb(10.980392%,90.980393%,96.078432%);fill-opacity:1;" d="M 15.90625 15.476562 L 15.019531 12.859375 L 16.40625 8.882812 C 16.898438 7.527344 16.707031 6.847656 15.605469 6.074219 L 13.824219 5.007812 L 14.324219 3.457031 L 18.09375 5.296875 L 22.089844 3.457031 L 22.582031 5.007812 L 21.09375 5.78125 C 19.707031 6.363281 19.707031 7.625 20.128906 8.785156 L 26.023438 25.515625 C 27.617188 29.878906 23.941406 30.558594 20.96875 32.011719 L 20.46875 30.558594 C 23.148438 29.296875 24.839844 28.910156 24.328125 25.808594 L 23.738281 24.167969 L 20.0625 14.378906 L 17.402344 14.378906 L 18.886719 11.085938 L 18.386719 10.113281 Z M 15.90625 15.476562 "/>
<path style=" stroke:none;fill-rule:nonzero;fill:rgb(10.980392%,90.980393%,96.078432%);fill-opacity:1;" d="M 16.109375 15.765625 L 18.289062 15.765625 L 17.199219 18.964844 Z M 16.109375 15.765625 "/>
<path style=" stroke:none;fill-rule:nonzero;fill:rgb(10.980392%,90.980393%,96.078432%);fill-opacity:1;" d="M 12.933594 19.253906 L 13.898438 21.582031 L 12.210938 26.320312 C 12.105469 28.746094 14.691406 29.8125 16.175781 30.78125 L 15.578125 32.136719 C 11.316406 30.390625 8.824219 29.8125 10.824219 24.78125 Z M 12.933594 19.253906 "/>
<path style=" stroke:none;fill-rule:nonzero;fill:rgb(0%,31.37255%,39.215687%);fill-opacity:1;" d="M 20.566406 17.121094 L 22.253906 21.386719 L 19.871094 27.457031 L 16.601562 27.457031 L 11.042969 13.410156 L 7.078125 24.363281 C 6.683594 25.71875 7.871094 26.691406 9.058594 27.269531 L 9.058594 28.820312 C 5.390625 27.175781 4.699219 26.503906 5.390625 24.082031 L 10.050781 10.609375 C 10.550781 8.960938 8.769531 8.28125 7.667969 7.605469 L 8.46875 6.054688 C 12.53125 7.703125 13.628906 9.15625 14.3125 12.449219 L 18.171875 24.46875 Z M 20.566406 17.121094 "/>
<path style=" stroke:none;fill-rule:nonzero;fill:rgb(0%,31.37255%,39.215687%);fill-opacity:1;" d="M 23.640625 17.703125 L 25.328125 13.535156 L 29.1875 24.199219 C 29.691406 26.332031 28.398438 26.71875 27.257812 27.386719 L 27.257812 28.9375 C 29.4375 27.96875 32.015625 27.289062 30.925781 24.09375 L 26.417969 10.976562 C 26.226562 10.007812 26.226562 9.425781 26.816406 8.941406 L 28.800781 7.777344 L 28.011719 6.132812 L 25.328125 7.292969 C 23.148438 8.261719 22.359375 10.492188 21.855469 13.011719 Z M 23.640625 17.703125 "/>
<path style="fill:none;stroke-width:2;stroke-linecap:butt;stroke-linejoin:miter;stroke:rgb(0%,31.37255%,39.215687%);stroke-opacity:1;stroke-miterlimit:4;" d="M 36.921049 18.399031 C 36.921049 8.791388 28.878359 1.001299 18.960661 1.001299 C 9.042964 1.001299 1.000274 8.791388 1.000274 18.399031 C 1.000274 28.010703 9.042964 35.800792 18.960661 35.800792 C 28.878359 35.800792 36.921049 28.010703 36.921049 18.399031 Z M 36.921049 18.399031 " transform="matrix(0.964579,0,0,0.96928,0,0.170086)"/>
<path style="fill-rule:nonzero;fill:rgb(10.980392%,90.980393%,96.078432%);fill-opacity:1;stroke-width:0.2;stroke-linecap:butt;stroke-linejoin:miter;stroke:rgb(10.980392%,90.980393%,96.078432%);stroke-opacity:1;stroke-miterlimit:10;" d="M 83.079936 96.451228 L 86.461429 96.451228 L 91.72198 103.390976 L 96.788146 96.451228 L 99.371849 96.451228 C 98.371575 96.918714 97.970656 97.45068 97.930159 97.910106 L 97.930159 109.911599 C 99.023576 110.354905 100.246583 110.354905 101.34 109.911599 L 101.34 98.288931 C 101.145615 97.462771 100.562459 96.777662 99.780868 96.451228 L 106.600551 96.451228 L 106.600551 99.340774 C 106.288725 98.341322 105.928302 97.628003 105.450438 97.499041 L 102.720945 97.499041 L 102.720945 103.749651 L 103.891307 103.749651 C 104.470413 103.580389 104.818686 102.89931 105.021171 101.928067 L 105.021171 105.498693 C 104.871332 104.370279 104.478512 103.959213 103.911555 104.108325 L 102.708796 104.108325 L 102.708796 110.278334 L 105.308699 110.278334 C 106.146985 109.383662 106.673445 108.239128 106.811135 107.018022 L 106.811135 110.661189 L 83.079936 110.661189 C 84.08021 110.459686 85.080484 110.358935 85.080484 109.17813 L 85.080484 98.248631 C 85.12908 97.688453 84.311042 96.999315 83.079936 96.451228 Z M 83.079936 96.451228 " transform="matrix(0.964579,0,0,0.96928,-36.750472,-90.796883)"/>
<path style="fill-rule:nonzero;fill:rgb(100%,100%,100%);fill-opacity:1;stroke-width:0.2;stroke-linecap:butt;stroke-linejoin:miter;stroke:rgb(100%,100%,100%);stroke-opacity:1;stroke-miterlimit:10;" d="M 86.740858 98.99822 L 86.740858 109.899509 C 86.740858 110.141312 86.809703 110.270274 86.97169 110.310574 L 96.079449 110.310574 C 96.221189 110.310574 96.290033 110.161462 96.310282 109.96802 L 96.310282 99.340774 L 91.661235 106.340974 Z M 86.740858 98.99822 " transform="matrix(0.964579,0,0,0.96928,-36.750472,-90.796883)"/>
<path style=" stroke:none;fill-rule:nonzero;fill:rgb(10.980392%,90.980393%,96.078432%);fill-opacity:1;" d="M 66.710938 2.730469 C 67.269531 3.441406 67.65625 4.273438 67.839844 5.160156 L 67.839844 14.621094 C 67.839844 15.402344 67.402344 16.113281 66.710938 16.464844 L 70.570312 16.464844 C 70.019531 15.996094 69.6875 15.316406 69.660156 14.59375 L 69.660156 10.976562 L 70.570312 10.976562 C 72.914062 15.824219 75.199219 17.113281 76.644531 16.472656 C 75.679688 17.113281 72.074219 11.628906 72.152344 10.65625 C 75.402344 9.949219 75.304688 3.4375 72.152344 2.71875 L 66.730469 2.71875 "/>
<path style=" stroke:none;fill-rule:nonzero;fill:rgb(100%,100%,100%);fill-opacity:1;" d="M 69.660156 3.3125 L 69.660156 10.007812 L 71.832031 10.007812 C 73.859375 7.515625 72.605469 3.398438 71.097656 3.28125 Z M 69.660156 3.3125 "/>
<path style=" stroke:none;fill-rule:nonzero;fill:rgb(10.980392%,90.980393%,96.078432%);fill-opacity:1;" d="M 54.082031 19.566406 C 53.949219 19.566406 55.203125 20.730469 55.269531 22.007812 L 55.269531 31.496094 C 55.265625 32.292969 54.804688 33.015625 54.082031 33.347656 L 58.125 33.347656 C 57.550781 32.890625 57.199219 32.203125 57.160156 31.46875 L 57.160156 27.84375 L 58.125 27.84375 C 60.585938 32.6875 62.949219 33.988281 64.519531 33.347656 C 63.480469 33.988281 59.699219 28.503906 59.785156 27.53125 C 63.207031 26.824219 63.113281 20.292969 59.785156 19.566406 L 54.082031 19.566406 "/>
<path style=" stroke:none;fill-rule:nonzero;fill:rgb(100%,100%,100%);fill-opacity:1;" d="M 57.199219 20.15625 L 57.199219 26.941406 L 59.476562 26.941406 C 61.609375 24.441406 60.285156 20.3125 58.703125 20.15625 Z M 57.199219 20.15625 "/>
<path style=" stroke:none;fill-rule:nonzero;fill:rgb(0%,31.37255%,39.215687%);fill-opacity:1;" d="M 79 2.574219 L 82.152344 2.574219 L 88.644531 16.464844 C 86.289062 11.285156 83.023438 6.582031 79 2.574219 Z M 79 2.574219 "/>
<path style=" stroke:none;fill-rule:nonzero;fill:rgb(0%,31.37255%,39.215687%);fill-opacity:1;" d="M 79.25 4.648438 C 80.65625 6.296875 82.53125 7.273438 82.394531 9.234375 C 79.164062 9.308594 77.378906 12.46875 75.894531 16.464844 Z M 79.25 4.648438 "/>
<path style="fill-rule:nonzero;fill:rgb(10.980392%,90.980393%,96.078432%);fill-opacity:1;stroke-width:0.3;stroke-linecap:butt;stroke-linejoin:miter;stroke:rgb(10.980392%,90.980393%,96.078432%);stroke-opacity:1;stroke-miterlimit:10;" d="M 131.109291 96.451228 L 134.381443 96.451228 C 133.591753 96.741391 133.6282 97.45068 133.6282 98.389682 L 133.6282 109.238581 C 133.6282 110.310574 133.6282 110.310574 134.049368 110.310574 L 135.628749 110.310574 C 136.730265 110.310574 136.900352 110.310574 137.240526 108.900056 L 137.240526 110.661189 L 130.898707 110.661189 C 131.639801 110.290424 132.17841 110.258184 132.251305 109.238581 L 132.251305 98.369532 C 132.251305 96.999315 131.741043 96.741391 131.109291 96.451228 Z M 131.109291 96.451228 " transform="matrix(0.964579,0,0,0.96928,-36.750472,-90.796883)"/>
<path style="fill-rule:nonzero;fill:rgb(10.980392%,90.980393%,96.078432%);fill-opacity:1;stroke-width:0.3;stroke-linecap:butt;stroke-linejoin:miter;stroke:rgb(10.980392%,90.980393%,96.078432%);stroke-opacity:1;stroke-miterlimit:10;" d="M 138.601223 96.499588 L 141.881474 96.499588 C 141.091784 96.789752 141.128231 97.499041 141.128231 98.429983 L 141.128231 109.250671 C 141.128231 110.310574 141.128231 110.310574 141.5413 110.310574 L 143.12068 110.310574 C 144.230296 110.310574 144.388234 110.310574 144.728408 108.900056 L 144.728408 110.661189 L 138.390639 110.661189 C 139.139832 110.290424 139.670342 110.270274 139.739187 109.250671 L 139.739187 98.401772 C 139.739187 97.092006 139.241074 96.781692 138.601223 96.499588 Z M 138.601223 96.499588 " transform="matrix(0.964579,0,0,0.96928,-36.750472,-90.796883)"/>
<path style=" stroke:none;fill-rule:nonzero;fill:rgb(10.980392%,90.980393%,96.078432%);fill-opacity:1;" d="M 110.183594 2.488281 C 110.953125 2.808594 111.433594 3.589844 111.371094 4.425781 L 111.371094 15.15625 C 111.265625 15.820312 110.8125 16.378906 110.183594 16.609375 L 120.792969 16.609375 L 120.792969 4.503906 C 120.789062 3.675781 121.265625 2.917969 122.007812 2.5625 L 118.152344 2.5625 C 118.890625 2.980469 119.367188 3.75 119.414062 4.601562 L 119.414062 11.140625 L 114.089844 2.554688 Z M 110.183594 2.488281 "/>
<path style=" stroke:none;fill-rule:nonzero;fill:rgb(100%,100%,100%);fill-opacity:1;" d="M 112.429688 4.53125 L 112.429688 14.738281 C 112.488281 15.515625 112.722656 15.980469 113.210938 16 L 118.730469 16 C 119.230469 15.757812 119.320312 14.652344 118.730469 13.738281 L 113.066406 4.53125 C 112.539062 3.503906 112.429688 4.53125 112.429688 4.53125 Z M 112.429688 4.53125 "/>
<path style=" stroke:none;fill-rule:nonzero;fill:rgb(10.980392%,90.980393%,96.078432%);fill-opacity:1;" d="M 104.445312 2.730469 L 106.519531 2.730469 L 106.519531 16.617188 L 104.445312 16.617188 C 104.917969 16.453125 105.535156 16.347656 105.496094 15.496094 L 105.496094 3.863281 C 105.402344 3.308594 104.988281 2.863281 104.445312 2.730469 Z M 104.445312 2.730469 "/>
<path style=" stroke:none;fill-rule:nonzero;fill:rgb(10.980392%,90.980393%,96.078432%);fill-opacity:1;" d="M 108.601562 2.730469 L 106.519531 2.730469 L 106.519531 16.617188 L 108.601562 16.617188 C 108.121094 16.453125 107.511719 16.347656 107.539062 15.496094 L 107.539062 3.863281 C 107.644531 3.308594 108.058594 2.867188 108.601562 2.730469 Z M 108.601562 2.730469 "/>
<path style="fill-rule:nonzero;fill:rgb(10.980392%,90.980393%,96.078432%);fill-opacity:1;stroke-width:0.2;stroke-linecap:butt;stroke-linejoin:miter;stroke:rgb(10.980392%,90.980393%,96.078432%);stroke-opacity:1;stroke-miterlimit:10;" d="M 92.920689 117.218082 L 92.920689 114.449437 C 86.182 112.249029 81.771885 116.448343 83.428209 123.29137 C 85.189826 128.699699 91.859669 128.949562 93.341857 126.918416 L 93.341857 122.50954 C 93.394503 121.965483 93.69823 121.473817 94.159895 121.179623 L 90.40178 121.179623 C 90.899892 121.453666 91.240066 121.945333 91.32106 122.50954 L 91.32106 126.608102 C 90.308637 127.172309 89.08158 127.172309 88.069157 126.608102 C 84.541875 124.971901 84.278645 116.609545 88.069157 115.001554 C 89.016785 114.67109 90.049457 114.67109 91.001135 115.001554 C 91.940663 115.412619 92.64531 116.23072 92.920689 117.218082 Z M 92.920689 117.218082 " transform="matrix(0.964579,0,0,0.96928,-36.750472,-90.796883)"/>
<path style=" stroke:none;fill-rule:nonzero;fill:rgb(0%,31.37255%,39.215687%);fill-opacity:1;" d="M 73.617188 26.476562 C 73.617188 22.636719 71.128906 19.527344 68.0625 19.527344 C 64.992188 19.527344 62.503906 22.636719 62.503906 26.476562 C 62.503906 30.316406 64.992188 33.425781 68.0625 33.425781 C 71.128906 33.425781 73.617188 30.316406 73.617188 26.476562 Z M 73.617188 26.476562 "/>
<path style=" stroke:none;fill-rule:nonzero;fill:rgb(100%,100%,100%);fill-opacity:1;" d="M 72.488281 26.109375 C 72.488281 22.46875 70.507812 19.515625 68.0625 19.515625 C 65.617188 19.515625 63.632812 22.46875 63.632812 26.109375 C 63.632812 29.75 65.617188 32.699219 68.0625 32.699219 C 70.507812 32.699219 72.488281 29.75 72.488281 26.109375 Z M 72.488281 26.109375 "/>
<path style="fill-rule:nonzero;fill:rgb(10.980392%,90.980393%,96.078432%);fill-opacity:1;stroke-width:0.2;stroke-linecap:butt;stroke-linejoin:miter;stroke:rgb(10.980392%,90.980393%,96.078432%);stroke-opacity:1;stroke-miterlimit:10;" d="M 114.420508 113.86105 L 119.00071 113.86105 C 118.425654 114.046432 117.95184 114.461527 117.700759 115.009614 L 117.700759 123.589594 C 117.700759 125.588499 118.830623 126.910356 120.928364 126.829755 C 122.608986 126.741094 123.811745 125.66104 123.759099 123.170468 L 123.759099 115.170816 C 123.516118 114.614669 123.098999 114.155243 122.568489 113.86105 L 125.901387 113.86105 C 125.281784 114.268085 124.840367 114.6993 124.901112 115.178876 L 124.901112 123.480782 C 124.812019 126.708853 123.119248 127.929959 120.4505 128.159672 L 120.000984 128.159672 C 117.360585 128.159672 115.420782 126.031805 115.530123 122.771493 L 115.530123 115.001554 C 115.489627 114.570339 114.999614 114.211664 114.420508 113.86105 Z M 114.420508 113.86105 " transform="matrix(0.964579,0,0,0.96928,-36.750472,-90.796883)"/>
<path style="fill-rule:nonzero;fill:rgb(10.980392%,90.980393%,96.078432%);fill-opacity:1;stroke-width:0.2;stroke-linecap:butt;stroke-linejoin:miter;stroke:rgb(10.980392%,90.980393%,96.078432%);stroke-opacity:1;stroke-miterlimit:10;" d="M 126.881412 113.86105 L 132.469988 113.86105 C 138.621471 115.311868 134.470536 123.859607 130.651676 122.078324 C 134.15871 122.461179 134.648723 114.771841 130.651676 114.771841 L 129.93893 114.771841 L 129.93893 126.769304 C 129.910582 127.466503 130.412744 128.075041 131.101192 128.179822 L 126.881412 128.179822 C 127.379524 127.958169 127.719699 127.486653 127.768295 126.938566 L 127.768295 115.001554 C 127.800692 114.340626 127.359276 114.058522 126.881412 113.86105 Z M 126.881412 113.86105 " transform="matrix(0.964579,0,0,0.96928,-36.750472,-90.796883)"/>
</g>
</svg>
