<?xml version="1.0" encoding="UTF-8"?>
<svg xmlns="http://www.w3.org/2000/svg" xmlns:xlink="http://www.w3.org/1999/xlink" width="128px" height="30px" viewBox="0 0 128 30" version="1.1">
<g id="surface1">
<path style=" stroke:none;fill-rule:nonzero;fill:rgb(10.980392%,90.980393%,96.078432%);fill-opacity:1;" d="M 13.347656 12.882812 L 12.589844 10.6875 L 13.761719 7.355469 C 14.183594 6.214844 14.011719 5.648438 13.09375 4.996094 L 11.589844 4.101562 L 12.003906 2.800781 L 15.179688 4.347656 L 18.519531 2.800781 L 18.941406 4.101562 L 17.683594 4.753906 C 16.523438 5.242188 16.523438 6.296875 16.871094 7.273438 L 21.835938 21.304688 C 23.167969 24.964844 20.078125 25.53125 17.570312 26.75 L 17.15625 25.53125 C 19.40625 24.476562 20.828125 24.148438 20.40625 21.546875 L 19.902344 20.167969 L 16.8125 11.957031 L 14.597656 11.957031 L 15.847656 9.191406 L 15.433594 8.378906 Z M 13.347656 12.882812 "/>
<path style=" stroke:none;fill-rule:nonzero;fill:rgb(10.980392%,90.980393%,96.078432%);fill-opacity:1;" d="M 13.507812 13.125 L 15.335938 13.125 L 14.410156 15.808594 Z M 13.507812 13.125 "/>
<path style=" stroke:none;fill-rule:nonzero;fill:rgb(10.980392%,90.980393%,96.078432%);fill-opacity:1;" d="M 10.835938 16.054688 L 11.648438 18.003906 L 10.226562 21.988281 C 10.144531 24.019531 12.3125 24.914062 13.574219 25.726562 L 13.070312 26.867188 C 9.480469 25.402344 7.382812 24.914062 9.058594 20.6875 Z M 10.835938 16.054688 "/>
<path style=" stroke:none;fill-rule:nonzero;fill:rgb(0%,31.37255%,39.215687%);fill-opacity:1;" d="M 17.269531 14.265625 L 18.691406 17.839844 L 16.683594 22.929688 L 13.921875 22.929688 L 9.25 11.140625 L 5.90625 20.328125 C 5.574219 21.46875 6.570312 22.28125 7.578125 22.769531 L 7.578125 24.070312 C 4.484375 22.6875 3.898438 22.117188 4.484375 20.085938 L 8.414062 8.785156 C 8.828125 7.402344 7.328125 6.832031 6.410156 6.265625 L 7.074219 4.964844 C 10.503906 6.347656 11.421875 7.566406 12.003906 10.328125 L 15.253906 20.410156 Z M 17.269531 14.265625 "/>
<path style=" stroke:none;fill-rule:nonzero;fill:rgb(0%,31.37255%,39.215687%);fill-opacity:1;" d="M 19.859375 14.753906 L 21.273438 11.257812 L 24.523438 20.199219 C 24.9375 21.988281 23.847656 22.3125 22.898438 22.882812 L 22.898438 24.183594 C 24.734375 23.371094 26.910156 22.800781 25.992188 20.117188 L 22.199219 9.109375 C 22.027344 8.296875 22.027344 7.808594 22.53125 7.402344 L 24.15625 6.425781 L 23.492188 5.046875 L 21.234375 6.019531 C 19.398438 6.832031 18.730469 8.703125 18.316406 10.816406 Z M 19.859375 14.753906 "/>
<path style="fill:none;stroke-width:2;stroke-linecap:butt;stroke-linejoin:miter;stroke:rgb(0%,31.37255%,39.215687%);stroke-opacity:1;stroke-miterlimit:4;" d="M 36.918386 18.399805 C 36.918386 8.790002 28.877805 1.001256 18.961729 1.001256 C 9.040845 1.001256 1.000264 8.790002 1.000264 18.399805 C 1.000264 28.009609 9.040845 35.798355 18.961729 35.798355 C 28.877805 35.798355 36.918386 28.009609 36.918386 18.399805 Z M 36.918386 18.399805 " transform="matrix(0.812286,0,0,0.812972,0,0.0453822)"/>
<path style="fill-rule:nonzero;fill:rgb(0%,31.37255%,39.215687%);fill-opacity:1;stroke-width:0.2;stroke-linecap:butt;stroke-linejoin:miter;stroke:rgb(0%,31.37255%,39.215687%);stroke-opacity:1;stroke-miterlimit:10;" d="M 78.89998 96.898143 L 82.901035 96.898143 L 89.099784 103.797982 L 95.101366 96.898143 L 98.198336 96.898143 C 97.000905 97.397852 96.601762 97.902367 96.601762 98.402077 L 96.601762 110.399917 C 97.895372 110.856382 99.304397 110.856382 100.598007 110.399917 L 100.598007 98.699981 C 100.501828 97.902367 99.698732 97.301754 98.698468 96.898143 L 106.700578 96.898143 L 106.700578 99.800303 C 106.301434 98.800884 105.90229 98.099368 105.30117 97.998465 L 102.098403 97.998465 L 102.098403 104.297691 L 103.49781 104.297691 C 104.199919 104.10069 104.599062 103.500078 104.801039 102.500658 L 104.801039 106.09953 C 104.599062 104.999207 104.199919 104.6004 103.49781 104.701303 L 102.098403 104.701303 L 102.098403 110.899626 L 105.200182 110.899626 C 106.123503 110.01072 106.748667 108.857543 106.998733 107.598659 L 106.998733 111.202335 L 79.000968 111.202335 C 80.198399 111.000529 81.400639 110.899626 81.400639 109.698401 L 81.400639 98.599078 C 81.299651 98.099368 80.299387 97.397852 78.89998 96.898143 Z M 78.89998 96.898143 " transform="matrix(0.812286,0,0,0.812972,-30.964334,-76.252026)"/>
<path style="fill-rule:nonzero;fill:rgb(100%,100%,100%);fill-opacity:1;stroke-width:0.2;stroke-linecap:butt;stroke-linejoin:miter;stroke:rgb(100%,100%,100%);stroke-opacity:1;stroke-miterlimit:10;" d="M 83.502155 101.001529 L 83.502155 110.399917 C 83.502155 110.601723 83.598334 110.697821 83.699322 110.697821 L 93.798138 110.697821 C 93.899126 110.697821 94.000114 110.601723 94.000114 110.399917 L 94.000114 101.19853 L 88.897808 107.199852 Z M 83.502155 101.001529 " transform="matrix(0.812286,0,0,0.812972,-30.964334,-76.252026)"/>
<path style=" stroke:none;fill-rule:nonzero;fill:rgb(0%,31.37255%,39.215687%);fill-opacity:1;" d="M 57.332031 2.523438 C 57.847656 3.101562 58.210938 3.800781 58.386719 4.558594 L 58.386719 12.523438 C 58.394531 13.210938 57.972656 13.828125 57.332031 14.070312 L 60.90625 14.070312 C 60.394531 13.722656 60.089844 13.144531 60.09375 12.523438 L 60.09375 9.433594 L 60.90625 9.433594 C 63.015625 13.5 65.210938 14.558594 66.511719 14.070312 C 65.617188 14.636719 62.367188 10.003906 62.367188 9.191406 C 65.371094 8.621094 65.292969 3.09375 62.367188 2.523438 L 57.332031 2.523438 "/>
<path style=" stroke:none;fill-rule:nonzero;fill:rgb(100%,100%,100%);fill-opacity:1;" d="M 60.011719 3.011719 L 60.011719 8.621094 L 61.960938 8.621094 C 63.828125 6.507812 62.691406 3.09375 61.230469 3.011719 Z M 60.011719 3.011719 "/>
<path style=" stroke:none;fill-rule:nonzero;fill:rgb(0%,31.37255%,39.215687%);fill-opacity:1;" d="M 43.929688 14.964844 C 43.847656 14.964844 45.066406 15.9375 45.226562 16.996094 L 45.226562 24.964844 C 45.226562 25.777344 44.660156 26.183594 43.929688 26.507812 L 48.234375 26.507812 C 47.660156 26.199219 47.289062 25.613281 47.257812 24.964844 L 47.257812 21.875 L 48.234375 21.875 C 50.832031 25.9375 53.351562 26.996094 54.976562 26.507812 C 53.917969 27.078125 49.9375 22.441406 49.9375 21.628906 C 53.59375 21.0625 53.433594 15.53125 49.9375 14.964844 L 43.929688 14.964844 "/>
<path style=" stroke:none;fill-rule:nonzero;fill:rgb(100%,100%,100%);fill-opacity:1;" d="M 47.175781 15.453125 L 47.175781 21.0625 L 49.53125 21.0625 C 51.808594 18.945312 50.425781 15.53125 48.640625 15.453125 Z M 47.175781 15.453125 "/>
<path style=" stroke:none;fill-rule:nonzero;fill:rgb(0%,31.37255%,39.215687%);fill-opacity:1;" d="M 71.382812 2.769531 L 75.039062 2.769531 L 82.429688 14.394531 C 79.5 9.867188 75.753906 5.925781 71.382812 2.769531 Z M 71.382812 2.769531 "/>
<path style=" stroke:none;fill-rule:nonzero;fill:rgb(0%,31.37255%,39.215687%);fill-opacity:1;" d="M 71.707031 4.558594 C 73.332031 5.9375 75.445312 6.753906 75.363281 8.378906 C 71.628906 8.460938 69.679688 11.0625 67.972656 14.476562 Z M 71.707031 4.558594 "/>
<path style="fill-rule:nonzero;fill:rgb(0%,31.37255%,39.215687%);fill-opacity:1;stroke-width:0.3;stroke-linecap:butt;stroke-linejoin:miter;stroke:rgb(0%,31.37255%,39.215687%);stroke-opacity:1;stroke-miterlimit:10;" d="M 141.599201 96.999045 L 147.398806 96.999045 C 145.999399 97.301754 145.999399 97.998465 145.999399 98.901787 L 145.999399 109.698401 C 145.999399 110.798723 145.999399 110.798723 146.701507 110.798723 L 149.500322 110.798723 C 151.399861 110.798723 151.799005 110.798723 152.299137 109.400497 L 152.299137 111.202335 L 141.200057 111.202335 C 142.402297 110.798723 143.49874 110.798723 143.49874 109.799304 L 143.49874 98.901787 C 143.599728 97.498755 142.700452 97.200851 141.599201 96.999045 Z M 141.599201 96.999045 " transform="matrix(0.812286,0,0,0.812972,-30.964334,-76.252026)"/>
<path style="fill-rule:nonzero;fill:rgb(0%,31.37255%,39.215687%);fill-opacity:1;stroke-width:0.3;stroke-linecap:butt;stroke-linejoin:miter;stroke:rgb(0%,31.37255%,39.215687%);stroke-opacity:1;stroke-miterlimit:10;" d="M 154.50164 96.999045 L 160.301246 96.999045 C 158.901839 97.301754 158.901839 97.998465 158.901839 98.901787 L 158.901839 109.698401 C 158.901839 110.798723 158.901839 110.798723 159.599138 110.798723 L 162.397953 110.798723 C 164.302301 110.798723 164.701444 110.798723 165.201576 109.400497 L 165.201576 111.202335 L 154.097688 111.202335 C 155.299928 110.798723 156.40118 110.798723 156.40118 109.799304 L 156.40118 98.901787 C 156.40118 97.498755 155.501904 97.200851 154.50164 96.999045 Z M 154.50164 96.999045 " transform="matrix(0.812286,0,0,0.812972,-30.964334,-76.252026)"/>
<path style=" stroke:none;fill-rule:nonzero;fill:rgb(0%,31.37255%,39.215687%);fill-opacity:1;" d="M 113.867188 2.445312 C 114.679688 2.769531 115.328125 3.175781 115.246094 4.070312 L 115.246094 13.09375 C 115.164062 13.742188 114.515625 14.070312 113.867188 14.3125 L 126.539062 14.3125 L 126.539062 4.152344 C 126.539062 3.417969 127.105469 2.851562 128 2.523438 L 123.53125 2.523438 C 124.324219 2.738281 124.90625 3.414062 124.996094 4.230469 L 124.996094 9.679688 L 118.660156 2.445312 Z M 113.867188 2.445312 "/>
<path style=" stroke:none;fill-rule:nonzero;fill:rgb(100%,100%,100%);fill-opacity:1;" d="M 116.628906 4.152344 L 116.628906 12.6875 C 116.710938 13.335938 116.953125 13.742188 117.523438 13.742188 L 124.101562 13.742188 C 124.667969 13.5 124.832031 12.605469 124.101562 11.875 C 121.828125 9.273438 119.632812 6.753906 117.277344 4.152344 C 116.710938 3.339844 116.628906 4.152344 116.628906 4.152344 Z M 116.628906 4.152344 "/>
<path style=" stroke:none;fill-rule:nonzero;fill:rgb(0%,31.37255%,39.215687%);fill-opacity:1;" d="M 106.148438 2.523438 L 108.910156 2.523438 L 108.910156 14.152344 L 106.148438 14.152344 C 106.800781 13.988281 107.53125 13.90625 107.53125 13.175781 L 107.53125 3.417969 C 107.449219 3.011719 106.878906 2.6875 106.148438 2.523438 Z M 106.148438 2.523438 "/>
<path style=" stroke:none;fill-rule:nonzero;fill:rgb(0%,31.37255%,39.215687%);fill-opacity:1;" d="M 111.511719 2.523438 L 108.75 2.523438 L 108.75 14.152344 L 111.511719 14.152344 C 110.859375 13.988281 110.128906 13.90625 110.128906 13.175781 L 110.128906 3.417969 C 110.421875 2.917969 110.933594 2.585938 111.511719 2.523438 Z M 111.511719 2.523438 "/>
<path style="fill-rule:nonzero;fill:rgb(0%,31.37255%,39.215687%);fill-opacity:1;stroke-width:0.2;stroke-linecap:butt;stroke-linejoin:miter;stroke:rgb(0%,31.37255%,39.215687%);stroke-opacity:1;stroke-miterlimit:10;" d="M 89.498928 115.699723 L 89.498928 112.898466 C 81.799783 110.697821 76.798464 114.90211 78.601824 121.701046 C 80.698531 127.101755 88.200509 127.399659 89.99906 125.299917 L 89.99906 120.898627 C 90.023104 120.331649 90.374158 119.822329 90.898335 119.601304 L 86.498137 119.601304 C 87.099257 120.00011 87.4984 120.398917 87.4984 120.898627 L 87.4984 125.002013 C 86.291351 125.554577 84.906371 125.554577 83.699322 125.002013 C 79.698267 123.401981 79.299124 114.998208 83.699322 113.398175 C 84.781338 113.100271 85.921061 113.100271 86.998269 113.398175 C 88.181273 113.672055 89.128638 114.546547 89.498928 115.699723 Z M 89.498928 115.699723 " transform="matrix(0.812286,0,0,0.812972,-30.964334,-76.252026)"/>
<path style="fill-rule:nonzero;fill:rgb(0%,31.37255%,39.215687%);fill-opacity:1;stroke-width:1;stroke-linecap:butt;stroke-linejoin:miter;stroke:rgb(0%,31.37255%,39.215687%);stroke-opacity:1;stroke-miterlimit:10;" d="M 80.978078 25.549499 C 80.978078 21.849725 78.116747 18.851466 74.582161 18.851466 C 71.047575 18.851466 68.181435 21.849725 68.181435 25.549499 C 68.181435 29.249274 71.047575 32.252337 74.582161 32.252337 C 78.116747 32.252337 80.978078 29.249274 80.978078 25.549499 Z M 80.978078 25.549499 " transform="matrix(0.812286,0,0,0.812972,0,0.0453822)"/>
<path style="fill-rule:nonzero;fill:rgb(100%,100%,100%);fill-opacity:1;stroke-width:1;stroke-linecap:butt;stroke-linejoin:miter;stroke:rgb(100%,100%,100%);stroke-opacity:1;stroke-miterlimit:10;" d="M 79.078539 24.948887 C 79.078539 21.58065 77.111674 18.851466 74.67834 18.851466 C 72.249815 18.851466 70.278142 21.58065 70.278142 24.948887 C 70.278142 28.317123 72.249815 31.051112 74.67834 31.051112 C 77.111674 31.051112 79.078539 28.317123 79.078539 24.948887 Z M 79.078539 24.948887 " transform="matrix(0.812286,0,0,0.812972,0,0.0453822)"/>
<path style="fill-rule:nonzero;fill:rgb(0%,31.37255%,39.215687%);fill-opacity:1;stroke-width:0.2;stroke-linecap:butt;stroke-linejoin:miter;stroke:rgb(0%,31.37255%,39.215687%);stroke-opacity:1;stroke-miterlimit:10;" d="M 119.800185 112.499659 L 125.200647 112.499659 C 124.561055 112.67744 123.998407 113.066637 123.599263 113.599981 L 123.599263 122.099853 C 123.599263 124.098692 124.897682 125.40082 127.398342 125.299917 C 129.398869 125.199014 130.899265 124.098692 130.702097 121.600143 L 130.702097 113.700884 C 130.418369 113.105076 129.918237 112.639001 129.297881 112.398756 L 133.197947 112.398756 C 132.500648 112.802368 131.899528 113.201174 132.000516 113.700884 L 132.000516 121.898047 C 131.899528 125.098111 129.798013 126.299337 126.600054 126.501143 L 126.099922 126.501143 C 124.657234 126.597241 123.2434 126.073506 122.214283 125.059672 C 121.180356 124.045838 120.632135 122.642806 120.69946 121.201336 L 120.69946 113.599981 C 121.098604 113.201174 120.502293 112.802368 119.800185 112.499659 Z M 119.800185 112.499659 " transform="matrix(0.812286,0,0,0.812972,-30.964334,-76.252026)"/>
<path style="fill-rule:nonzero;fill:rgb(0%,31.37255%,39.215687%);fill-opacity:1;stroke-width:0.2;stroke-linecap:butt;stroke-linejoin:miter;stroke:rgb(0%,31.37255%,39.215687%);stroke-opacity:1;stroke-miterlimit:10;" d="M 135.501439 112.398756 L 142.301309 112.398756 C 149.798477 113.897885 144.70098 122.200756 140.098805 120.398917 C 144.398015 120.797724 144.999135 113.201174 140.098805 113.201174 L 139.19953 113.201174 L 139.19953 125.002013 C 139.19953 125.799627 139.80065 126.299337 140.699925 126.40024 L 135.597618 126.40024 C 136.198738 126.102336 136.597882 125.799627 136.69887 125.199014 L 136.69887 113.398175 C 136.597882 112.802368 136.09775 112.600562 135.501439 112.398756 Z M 135.501439 112.398756 " transform="matrix(0.812286,0,0,0.812972,-30.964334,-76.252026)"/>
</g>
</svg>
